<svg width="1501" height="147" viewBox="0 0 1501 147" fill="none" xmlns="http://www.w3.org/2000/svg">
<g clip-path="url(#clip0)">
<path d="M66.4 55.2L91 2.2H132.8L85.8 89.2V145H47V90.4L0 2.2H42L66.4 55.2ZM233 145H148.2V2.2H233V33.2H186.8V55.7H229.6V86.7H186.8V113.7H233V145ZM258 145V2.2H296.6V113.8H351.6V145H258ZM374.4 145V2.2H413V113.8H468V145H374.4ZM624.4 73.4C624.4 97.4 618.5 115.7 606.7 128.2C594.9 140.7 577.7 147 555 147C532.6 147 515.4 140.7 503.4 128.2C491.5 115.6 485.5 97.3 485.5 73.3C485.5 49.5 491.4 31.4 503.3 18.9C515.2 6.3 532.5 0 555.2 0C577.9 0 595.1 6.2 606.9 18.7C618.6 31.1 624.4 49.3 624.4 73.4ZM526.2 73.4C526.2 101 535.8 114.8 555 114.8C564.8 114.8 572 111.4 576.7 104.7C581.5 98 583.8 87.5 583.8 73.4C583.8 59.1 581.4 48.6 576.6 41.9C571.8 35.1 564.7 31.6 555.2 31.6C535.8 31.6 526.2 45.6 526.2 73.4ZM804.4 145H758.8L745.1 82.8C744.4 80.2 743.4 75 742 67.3C740.6 59.6 739.6 53.1 739 47.9C738.5 52.1 737.6 57.4 736.5 63.7C735.3 69.9 734.2 75.7 733 81C731.9 86.3 727.2 107.6 718.8 145.1H673.2L637.8 2.2H675L690.5 73.8C694 89.6 696.4 102.2 697.7 111.6C698.5 105 700 95.9 702.2 84.5C704.4 73.1 706.5 63.7 708.4 56.2L721 2.2H756.7L768.9 56.2C771 64.9 773.1 74.9 775.2 86.2C777.3 97.5 778.8 106 779.5 111.6C780.3 104.4 782.7 91.8 786.4 74L802.2 2.2H839.4L804.4 145Z" fill="#F2BD04"/>
<path d="M896.6 93.1001V145.1H858V2.2001H904.8C943.6 2.2001 963 16.3001 963 44.4001C963 60.9001 954.9 73.7001 938.8 82.8001L980.4 145H936.6L906.3 93.0001H896.6V93.1001ZM896.6 64.1001H903.8C917.3 64.1001 924 58.1001 924 46.2001C924 36.4001 917.4 31.5001 904.2 31.5001H896.6V64.1001V64.1001ZM1078.1 145H993.3V2.2001H1078.1V33.2001H1031.9V55.7001H1074.7V86.7001H1031.9V113.7H1078.1V145ZM1190.7 145C1180.5 105.1 1170.4 65.1001 1160.2 25.2001C1150.1 65.1001 1140.1 105.1 1130 145H1087.6L1134.2 1.6001H1185.7L1232.9 145H1190.7ZM1312 31.8001C1302.8 31.8001 1295.7 35.6001 1290.5 43.1001C1285.3 50.6001 1282.8 60.9001 1282.8 74.2001C1282.8 101.7 1293.2 115.4 1314.1 115.4C1320.4 115.4 1326.5 114.5 1332.5 112.8C1338.4 111 1344.4 108.9 1350.4 106.5V139.1C1338.5 144.4 1325 147 1310 147C1288.5 147 1271.9 140.8 1260.4 128.2C1248.9 115.7 1243.2 97.6001 1243.2 74.0001C1243.2 59.2001 1246 46.2001 1251.5 35.0001C1257.1 23.8001 1265.1 15.2001 1275.5 9.2001C1286 3.1001 1298.3 0.100098 1312.4 0.100098C1327.8 0.100098 1342.6 3.5001 1356.6 10.2001L1344.8 40.6001C1339.5 38.1001 1334.3 36.0001 1329 34.4001C1323.7 32.7001 1318.1 31.8001 1312 31.8001ZM1500.7 145H1461.9V86.8001H1417.1V145H1378.3V2.2001H1417.1V55.1001H1461.9V2.2001H1500.7V145Z" fill="black"/>
</g>
<defs>
<clipPath id="clip0">
<rect width="1500.7" height="147" fill="white"/>
</clipPath>
</defs>
</svg>
